<svg xmlns="http://www.w3.org/2000/svg" viewBox="0 0 24 24" fill="none" stroke="currentColor" stroke-width="2" stroke-linecap="round" stroke-linejoin="round">
  <circle cx="12" cy="12" r="3"/>
  <path d="M19.4 15a1.7 1.7 0 0 0 .3 1.8l.1.1-1.7 3-0.1-.1a1.7 1.7 0 0 0-2 .4l-.1.1-3-1.7.1-.1a1.7 1.7 0 0 0-.6-2.1H9a1.7 1.7 0 0 0-1.8.3l-.1.1-3-1.7.1-.1a1.7 1.7 0 0 0 .4-2l-.1-.1 1.7-3 .1.1a1.7 1.7 0 0 0 2-.4l.1-.1 3 1.7-.1.1a1.7 1.7 0 0 0 .6 2.1H15a1.7 1.7 0 0 0 1.8-.3l.1-.1 3 1.7-.1.1a1.7 1.7 0 0 0-.4 2z"/>
</svg>
